<svg version="1.2" xmlns="http://www.w3.org/2000/svg" viewBox="0 0 590 590" width="590" height="590"><style>.a{fill:#409}.b{fill:#fff}</style><path class="a" d="m295.9 26c-78.4 0-154.2 10.7-226.2 30.8v192.6c0 42.9 5.9 82.5 17.6 117.7 10.8 32.8 27 62.9 48.1 89.3 36.5 45.8 88.1 82.1 157.5 111.1l3.1 1.3 3-1.3c69.5-29 121-65.3 157.5-111.1 21.1-26.4 37.3-56.5 48.2-89.3 11.7-35.2 17.6-74.8 17.6-117.7v-192.6c-72-20.1-147.9-30.8-226.4-30.8z"/><path class="b" d="m188.3 355.2v-7.3l-14.4 10.5-4.8-6.7h-0.1c-9.4 9.6-17.8 20.3-24.7 31.8l-0.1 0.1h0.2c13-3.1 25.8-7.7 37.8-13.8h0.1l-4.8-6.6 10.9-8z"/><path class="b" d="m426.7 162.1l-27 24.1-1.4 9.1-31.8 23.1h10.1l25.2-18.3 9.2 1.5 31.1-18.3-14.1-2.2 10.2-7.4-3.5-4.8-10.2 7.4z"/><path class="b" d="m296 373.3c-2.9 0-5.7-0.4-8.4-1.2l-68.9 50-4.9-6.6c-9.4 9.6-17.8 20.3-24.8 31.8v0.1h0.1c13.1-3.1 25.8-7.8 37.9-13.8l-4.8-6.7 73.9-53.6z"/><path class="b" d="m471.5 225.9l-27 24-1.5 9.2-39.4 28.6v7.4l42.9-31.2 9.2 1.4 31.2-18.2-14.2-2.2 10.2-7.4-3.5-4.8-10.2 7.4z"/><path class="b" d="m248.6 359.6h-10.1l-42.2 30.6-4.9-6.6c-9.4 9.6-17.8 20.3-24.8 31.8v0.1h0.1c13.1-3.1 25.8-7.7 37.9-13.8l-4.8-6.6 48.9-35.5z"/><path class="b" d="m449.1 194l-27 24.1-1.4 9.1-17.1 12.4v7.3l20.6-14.9 9.1 1.5 31.2-18.3-14.1-2.2 10.2-7.4-3.5-4.8-10.2 7.4z"/><path fill-rule="evenodd" class="b" d="m381.7 75.1c0 0 0.3 2.1 0.1 5.1-5.2 5.6-10 11.6-14.2 17.9-5.8 8.8-10.5 18.1-14.2 27.9l-11.4 6.6 6.3 10.8q-1.6 6.7-2.4 13.7h-0.3c-16.1 3.3-32.7 5-49.4 5h-0.2c-16.8 0-33.3-1.7-49.5-5h-0.3c-0.5-4.6-1.3-9.2-2.3-13.7l6.2-10.8-11.4-6.6c-3.6-9.8-8.4-19.1-14.2-27.9q-6.2-9.5-14.2-17.9c-0.1-3 0.1-5.1 0.1-5.1 0 0 1.2-0.2 3.1-0.2 4.4-0.1 12.3 0.6 17.6 5.8 2 2 2.7 4.6 2.7 7.1 0 0.3 0 0.5 0 0.7 0 0.1 0 0.6 0 0.6q-0.1 0.4-0.1 0.7c-0.1 0.4-0.1 0.9-0.2 1.4 0.8-0.9 1.7-1.6 2.9-2.1 8.8-3.6 18.6 1.1 18.6 1.1 0 0-2.3 11.1-12.4 14-2.4 0.7-4.9 0.3-6.9-0.4l2.1 3.8c2.7 4.8 8.1 7.4 13.6 6.4 7-1.3 11.6-8 10.3-15l2.9-0.5 2.9-0.6c0.7 3.4 2.6 6.3 5.4 8.3 2.8 1.9 6.2 2.7 9.6 2.1 6.1-1.2 10.6-6.5 10.6-12.7v-8c-1.8 1.9-4.2 3.7-7.4 3.7-9.5 0-16.8-8.1-16.8-8.1 0 0 7.2-8.2 16.8-8.2 1.2 0 2.3 0.3 3.2 0.7-1.9-1.8-3.4-4.1-3.4-7 0-10.7 10.5-18.7 10.5-18.7 0 0 10.5 8 10.5 18.7 0 2.8-1.5 5.2-3.4 7 1-0.4 2-0.7 3.2-0.7 9.6 0 16.8 8.2 16.8 8.2 0 0-7.2 8.1-16.8 8.1-3.2 0-5.6-1.8-7.3-3.7v8c0 6.2 4.4 11.5 10.5 12.7 3.4 0.6 6.8-0.2 9.6-2.1 2.9-2 4.8-4.9 5.4-8.3l2.9 0.6 2.9 0.5c-1.3 7 3.4 13.7 10.3 15 5.5 1 10.9-1.6 13.6-6.4l2.1-3.8c-2 0.7-4.4 1.1-6.9 0.4-10.1-2.9-12.3-14-12.3-14 0 0 9.7-4.7 18.6-1.1q1.7 0.8 2.8 2.1-0.1-0.7-0.2-1.5c0-0.1-0.1-0.6-0.1-0.6 0-0.1 0-0.5 0-0.6q0-0.3 0-0.7c0-2.5 0.7-5.1 2.7-7.1 5.3-5.2 13.2-5.9 17.6-5.8 1.8 0 3.1 0.2 3.1 0.2zm-64.7 53.4c0 4.1 3.3 7.4 7.4 7.4 4.1 0 7.4-3.3 7.4-7.4 0-4.1-3.3-7.5-7.4-7.5-4.1 0-7.4 3.4-7.4 7.5zm-31.6-4.7l10.5 10.5 10.5-10.5-10.5-10.5zm-25.5 4.7c0 4 3.4 7.4 7.4 7.4 4.1 0 7.5-3.4 7.5-7.4 0-4.1-3.4-7.5-7.5-7.5-4 0-7.4 3.4-7.4 7.5zm80.5 23.7c0.1-0.8 0.3-1.6 0.4-2.4-14.7-2.8-29.7-4.2-44.9-4.2q-22.7 0-44.8 4.2 0.2 1.2 0.4 2.4c14.6 2.7 29.4 4.1 44.4 4.1 15.1 0 29.9-1.4 44.5-4.1z"/><path class="b" d="m412.4 137l3.5 4.8-10.3 7.4 14.2 2.3-31.2 18.2-9.2-1.5-83.4 60.7-83.5-60.7-9.2 1.5-31.2-18.2 14.2-2.3-10.2-7.4 3.5-4.8 10.2 7.4-2.2-14.2 26.9 24.1 1.5 9.1 80 58.2 80-58.2 1.4-9.1 27-24.1-2.2 14.2z"/><path class="b" d="m388.7 235.3l0.1 109.4h-77.7l-0.6 2.3c-1.6 6.8-7.6 11.4-14.5 11.4-7 0-12.9-4.6-14.6-11.4l-0.5-2.3h-77.8l0.2-109.4h-6.1v115.4h79.2c3 8.2 10.7 13.7 19.6 13.7 8.8 0 16.6-5.5 19.6-13.7h79.1v-115.4z"/><path class="b" d="m447.7 383.5c-7-11.5-15.3-22.2-24.8-31.7l-4.8 6.6-14.4-10.5v7.3l10.9 8-4.8 6.6h0.1c12 6.1 24.8 10.7 37.8 13.8h0.2l-0.1-0.1z"/><path class="b" d="m165.2 162.1l2.2 14.2-10.2-7.4-3.5 4.8 10.2 7.4-14.1 2.2 31.2 18.3 9.1-1.5 25.2 18.3h10.1l-31.8-23.1-1.4-9.1z"/><path class="b" d="m145.1 208.2l-10.3-7.4-3.4 4.8 10.2 7.4-14.2 2.2 31.2 18.3 9.2-1.5 20.5 14.9v-7.3l-17.1-12.4-1.4-9.1-27-24.1z"/><path class="b" d="m425.3 415.4c-7-11.5-15.3-22.2-24.8-31.7l-4.8 6.5-42.2-30.6h-10.1l48.8 35.5-4.8 6.6h0.1c12 6.1 24.8 10.7 37.8 13.8h0.2l-0.1-0.1z"/><path class="b" d="m122.7 240.1l-10.2-7.4-3.5 4.8 10.2 7.4-14.1 2.2 31.1 18.2 9.2-1.4 42.9 31.2v-7.4l-39.4-28.6-1.4-9.2-27-24z"/><path class="b" d="m378.2 415.6h-0.1l-4.8 6.5-68.9-50c-2.7 0.8-5.6 1.2-8.4 1.2l73.9 53.6-4.8 6.7h0.1c12 6 24.7 10.7 37.8 13.8h0.2l-0.1-0.1c-7-11.5-15.3-22.2-24.8-31.7z"/><path class="b" d="m188.3 307.1v-7.3l-36.8 26.7-4.8-6.7c-9.5 9.7-17.8 20.3-24.8 31.8l-0.1 0.1h0.2c13.1-3.1 25.8-7.7 37.8-13.8h0.1l-4.8-6.6 33.3-24.2z"/><path class="b" d="m470.1 351.6c-7-11.4-15.3-22.1-24.8-31.7l-4.9 6.6-36.7-26.7v7.3l33.3 24.2-4.8 6.6h0.1c12 6.1 24.7 10.8 37.8 13.8h0.2l-0.1-0.1z"/><path fill-rule="evenodd" class="b" d="m336 494.6c-1.3 4.1-5.2 6.8-9.3 6.8-0.9 0-2-0.2-3-0.5l-12.3-6 1.8 13.6c0 5.4-4.3 9.8-9.7 9.8h-15c-5.4 0-9.7-4.4-9.7-9.8l1.8-13.6-12.3 6q-1.5 0.4-3 0.5c-4.2 0-8-2.7-9.3-6.8-0.9-2.9-3.7-11.4-4.7-14.3-1.6-5.1 1.2-10.6 6.3-12.2l13.4-2.5-9.4-9.9c-3.2-4.3-2.2-10.4 2.2-13.6 2.4-1.8 9.7-7.1 12.1-8.8 1.7-1.3 3.8-1.9 5.7-1.9 3 0 6 1.4 7.9 4l6.5 12.1 6.5-12.1c1.9-2.6 4.9-4 7.9-4 2 0 4 0.6 5.7 1.9 2.5 1.7 9.7 7 12.2 8.8 4.3 3.2 5.3 9.3 2.1 13.6l-9.4 9.9 13.4 2.5c5.2 1.6 7.9 7.1 6.3 12.2-0.9 2.9-3.7 11.4-4.6 14.3zm-16.2-13.2c0 0-4.3-8.5-10.1-12.1 2.5-6.4 1-15.8 1-15.8 0 0-9.5 1.4-14.7 5.8-5.4-4.4-14.8-5.8-14.8-5.8 0 0-1.5 9.3 1.1 15.8-5.9 3.6-10.1 12.1-10.1 12.1 0 0 7.6 4 14.2 4 0.4 0 0.7 0 1.1 0 1.7 6.7 8.5 13.4 8.5 13.4 0 0 6.8-6.7 8.4-13.4 0.4 0 0.8 0 1.1 0 6.6 0 14.3-4 14.3-4z"/><path class="b" d="m296 480.1c-3.5 0-6.4-2.8-6.4-6.4 0-3.5 2.9-6.4 6.4-6.4 3.6 0 6.4 2.9 6.4 6.4 0 3.6-2.8 6.4-6.4 6.4z"/><path class="b" d="m255.6 461.8l0.4-0.1 0.4-0.1 1.4-0.3-1-1-0.3-0.4-0.2-0.3c-1.5-2.2-2.5-4.5-2.9-7-4.8 1.2-8.6 3.2-8.9 3.3l-1.2 0.7 0.6 1.3c0.1 0.3 2.1 4.1 5.2 7.8 1.8-1.7 4-3.1 6.5-3.9z"/><path class="b" d="m294.8 431.5l0.3 0.4 0.2 0.4 0.7 1.3 0.7-1.3 0.2-0.4 0.2-0.4c1.5-2 3.5-3.7 5.8-4.9-2.6-4-5.7-7.1-5.9-7.3l-1-1-1 1c-0.2 0.2-3.3 3.3-5.9 7.3 2.2 1.2 4.2 2.9 5.7 4.9z"/><path class="b" d="m347.5 455.9c-0.2-0.1-4.2-2.1-8.9-3.3-0.4 2.5-1.3 4.9-2.9 7l-0.2 0.4-0.3 0.3-1.1 1.1 1.5 0.2 0.4 0.1 0.4 0.1c2.6 0.8 4.7 2.2 6.5 4 3.1-3.8 5-7.6 5.2-7.9l0.6-1.3z"/><path class="b" d="m326.8 507.9q-2.6 0-5.1-0.8l-0.4-0.1-0.4-0.2-1.3-0.6 0.2 1.4v0.9c0.1 2.6-0.6 5.1-1.7 7.3 4.5 1.8 8.8 2.5 9.1 2.6l1.4 0.2 0.3-1.5c0-0.3 0.7-4.6 0.4-9.4q-1.3 0.2-2.5 0.2z"/><path class="b" d="m272.1 508.5v-0.9l0.3-1.4-1.3 0.6-0.4 0.2-0.4 0.1q-2.5 0.8-5.1 0.8c-0.8 0-1.6-0.1-2.5-0.2-0.3 4.8 0.4 9.1 0.4 9.4l0.3 1.5 1.4-0.2c0.3-0.1 4.6-0.8 9.1-2.6-1.1-2.2-1.8-4.7-1.8-7.3z"/><path class="b" d="m281.4 275.8c-1.3 0-2.1 1.6-2.2 4.5h2.4c1.3 0 1.6-0.4 1.6-1.7 0-1.7-0.7-2.8-1.9-2.8z"/><path class="b" d="m223 271h-0.9c0 2.5 0 5 0 7.6v1c0 2.7 0 5.2 0 7.7h0.8c3.5 0 5.5-3.1 5.5-8.2 0-5.1-2-8.1-5.5-8.1z"/><path fill-rule="evenodd" class="b" d="m293 243.8v98.4c-4.7-5.6-11.6-9.1-19.4-9.1h-64.4v-108.7h64.4c10.7 0 19.4 8.7 19.4 19.4zm-56.1 25.4c0 1.5 1.2 2.7 2.8 2.7 1.7 0 2.9-1.1 2.9-2.7 0-1.5-1.2-2.7-2.9-2.7-1.6 0-2.8 1.2-2.8 2.7zm-14 20.4c7 0 11.3-4 11.3-10.4 0-6.3-4.1-10.3-10.7-10.3h-9.4v2.1l2.3 0.2c0 2.5 0 5 0 7.5v1c0 2.6 0 5.1 0 7.6l-2.3 0.2v2.1h8.8zm21.1-0.1v-1.8l-1.6-0.3c0-1.5 0-7.5 0-8.7l0.1-4.6-0.7-0.4-6.7 2.1v1.6l1.9 0.3c0.1 1.1 0.1 2 0.1 3.7 0 1.2 0 4.5 0 5.9l-1.7 0.4v1.9h8.7zm6.3 0.5c4.5 0 7.2-2 7.2-5.4 0-2.5-1.4-4.1-4.3-5l-1.5-0.4c-2.3-0.7-2.4-1.3-2.4-1.9 0-1.3 1.4-1.5 2.1-1.5 0.6 0 1.1 0.1 1.5 0.2l0.6 2.7h2.9l0.3-3.7-0.2-0.1c-1.8-0.9-3.3-1.3-5-1.3-3.9 0-6.6 2.1-6.6 5.3 0 2.4 1.3 4.1 3.9 4.8l1.7 0.5c2 0.6 2.4 1.2 2.4 2q0 1.6-2.5 1.6c-0.7 0-1.4-0.1-2.1-0.4l-0.6-3.1h-2.9v4.1l0.1 0.1q2.4 1.5 5.5 1.5zm22.5-11.5v-0.1c-0.3-2.7-2.7-4.7-6-4.7-5.1 0-8.6 3.4-8.6 8.2 0 4.1 2.5 8.1 8 8.1 3 0 5.3-1.3 6.5-3.8l0.1-0.2-1.4-1.2-0.1 0.2c-1 1.1-2 1.6-3.3 1.6-2.6 0-4.1-2-4.1-5.3 0-4.1 1.9-5.6 3.5-5.6 0.1 0 0.4 0 0.4 0l0.2 1.4c0.2 2.7 1.7 3.1 2.6 3.1 1.2 0 1.9-0.6 2.3-1.8zm10.3 8c-2.3 0-3.7-1.6-4-4.3h8.9v-0.2c0.2-0.5 0.3-1.1 0.3-1.7 0-4.1-2.6-6.7-6.7-6.7-4 0-8.1 2.8-8.1 8.2 0 4.9 3.1 8.1 7.9 8.1 3.1 0 5.4-1.2 6.7-3.7l0.1-0.2-1.4-1.3-0.2 0.2c-1 1.1-2.1 1.6-3.5 1.6z"/><path class="b" d="m316.1 271h-0.8c-0.1 2.5-0.1 5-0.1 7.6v1c0 2.7 0 5.2 0.1 7.7h0.8c3.5 0 5.5-3.1 5.5-8.2 0-5.1-2-8.1-5.5-8.1z"/><path class="b" d="m336.6 275.8c-1.7 0-2.4 1.9-2.4 6.1 0 5.4 1.3 6.1 2.4 6.1 1.6 0 2.3-2 2.3-6.1 0-4.2-0.7-6.1-2.3-6.1z"/><path fill-rule="evenodd" class="b" d="m382.8 224.4v108.7h-64.4c-7.8 0-14.8 3.5-19.5 9.1v-98.4c0-10.7 8.8-19.4 19.5-19.4zm-66.7 65.2c6.9 0 11.3-4.1 11.3-10.4 0-6.4-4.1-10.4-10.8-10.4h-9.4v2.1l2.3 0.3c0.1 2.5 0.1 5 0.1 7.4v1.1c0 2.6 0 5.1-0.1 7.5l-2.3 0.3v2.1h8.9zm28.5-7.8c0-4.8-3.4-8.1-8.1-8.1-4.6 0-8 3.4-8 8.1 0 4.9 3.2 8.2 8 8.2 4.9 0 8.1-3.5 8.1-8.2zm15.4-3.2v-0.1c-0.3-2.7-2.8-4.7-6-4.7-5.1 0-8.6 3.4-8.6 8.2 0 4.1 2.4 8.1 7.9 8.1 3.1 0 5.3-1.3 6.6-3.8l0.1-0.2-1.4-1.2-0.1 0.1c-1 1.2-2 1.7-3.3 1.7-2.6 0-4.1-2-4.1-5.3 0-4.2 1.9-5.6 3.5-5.6 0.1 0 0.4 0 0.4 0l0.2 1.3c0.2 2.7 1.7 3.1 2.6 3.1 1.2 0 1.9-0.5 2.3-1.7zm10.3 7.9c-2.3 0-3.6-1.5-3.9-4.3h8.9v-0.1c0.2-0.6 0.2-1.1 0.2-1.7 0-4.1-2.6-6.8-6.6-6.8-4.1 0-8.2 2.9-8.2 8.2 0 4.9 3.2 8.2 8 8.2 3.1 0 5.4-1.3 6.6-3.8l0.1-0.1-1.3-1.3-0.2 0.2c-1 1.1-2.2 1.6-3.6 1.6z"/><path class="b" d="m368.5 275.8c-1.2 0-2 1.6-2.2 4.5h2.4c1.3 0 1.7-0.4 1.7-1.7 0-1.7-0.7-2.8-1.9-2.8z"/><path class="a" d="m418.2 821.1c11.1 0 19.9-7.9 19.9-18.8 0-10.9-8.8-19.1-19.9-19.1-11.2 0-20.2 7.7-20.2 19.1 0 11.4 8.8 18.8 20.2 18.8z"/><path class="a" d="m-128.4 617.5h42.7v8.3l-15.1 1.8v58.4c0 37.5-17.8 52.5-44.7 52.5-26.8 0-44.3-13.7-44.3-47.5v-19.4c0-14.6 0-29.5-0.3-44.3l-13.9-1.4v-8.4h54.1v8.4l-16.4 1.8c-0.3 14.4-0.3 29.2-0.3 43.9v13.9c0 29 10 38.6 27.4 38.6 17.4 0 28.1-11 28.1-40.4v-55.9l-17.3-2z"/><path class="a" d="m-83.5 728.2l11.6-2.4c0.1-8.7 0.1-20.1 0.1-27.7v-9.5c0-9.8-0.1-14.2-0.5-21.3l-12.5-1.6v-6.8l29.8-11.2 2.8 1.8 1.2 13.7c9.1-10.3 19.4-15.5 30.3-15.5 15.5 0 24.2 9.8 24.2 31.9v18.5c0 8 0 19.2 0.2 27.9l10.8 2.1v7.3h-43.9v-7.3l11.3-2.3c0.2-8.7 0.2-19.8 0.2-27.8v-16.9c0-13.8-3.6-18.5-12.5-18.5-6.2 0-12.8 2.9-19.9 8.8v26.7c0 7.8 0 19 0.2 27.9l10.5 2.1v7.3h-44v-7.3z"/><path class="a" d="m23.6 728.2l11.7-2.4c0.2-8.7 0.2-20.1 0.2-27.7v-8.4c0-9.8-0.2-15.3-0.6-22.4l-12.6-1.6v-6.7l32-11.3 2.9 1.8-0.5 25.1v23.5c0 7.6 0 19.1 0.1 27.9l10.9 2.2v7.2h-44.2v-7.2z"/><path class="a" d="m125.3 650.2h33.8v7.5l-9.9 2.1-29.2 76.4h-10.6l-32.2-76.9-9.2-1.6v-7.5h46.8v7.5l-13.7 2.1 19.6 51.6 17.6-51.4-13-2.3v-7.5z"/><path fill-rule="evenodd" class="a" d="m160.5 693.3c0-28.5 20.8-45.6 43.2-45.6 21 0 34.9 14.2 34.9 35.8 0 4.1-0.4 7.1-1 9.8h-54.5c0.9 20.4 11.7 30.6 26.7 30.6 10.5 0 17.3-4.7 23.2-11.2l5.1 4.6c-6.9 13.2-19 20.6-35.6 20.6-24.9 0-42-16.7-42-44.6zm22.8-8.4h24.4c8.5 0 10.7-3.7 10.7-10.1 0-10.9-7.2-18.5-15.9-18.5-8.7 0-17.8 7.5-19.2 28.6z"/><path class="a" d="m326.4 730.5l-0.2-20.7h12l3.2 16.6c4.2 1.8 8.7 2.7 13.8 2.7 12.2 0 18-4.5 18-12.1 0-6.6-4.2-10.4-15.7-14.1l-8.9-3c-13.3-4.3-21.5-12.5-21.5-25.1 0-14.8 12-27.1 33.8-27.1 10.2 0 18.2 2.7 26.5 7.3l-0.9 18.7h-11.7l-3.2-14.9c-3.4-1.4-6.7-2.1-11-2.1-9.5 0-15 4.2-15 11.2 0 6.4 3.6 9.6 15.7 13.7l7.1 2.1c17.3 5.9 24 14.6 24 26.9 0 16-13.3 27.4-37.4 27.4-10.8 0-19.5-2.5-28.6-7.5z"/><path class="a" d="m399.7 728.2l11.8-2.4c0.1-8.7 0.1-20.1 0.1-27.7v-8.4c0-9.8-0.1-15.3-0.5-22.4l-12.7-1.6v-6.7l32.1-11.3 2.8 1.8-0.5 25.1v23.5c0 7.6 0 19.1 0.2 27.9l10.8 2.2v7.2h-44.1v-7.2z"/><path class="a" d="m458.1 715.5c0-5.3 0.2-9.6 0.2-16.5v-38h-13.2v-9.2l14.4-1.8 6.8-24.4h14.4l-0.7 24.6h21.3v10.8h-21.5v52.5c0 8.7 3.7 12.7 9.5 12.7 3.5 0 6.7-1.5 10.8-4.5l4.3 4.5c-4.7 7.4-12.5 11.7-23.5 11.7-14.2 0-22.8-6.7-22.8-22.4z"/><path fill-rule="evenodd" class="a" d="m643.4 692.9c0-28.5 19.9-45.2 42.9-45.2 23 0 43.1 16.6 43.1 45.2 0 28.6-19.1 45-43.1 45-24 0-42.9-16.7-42.9-45zm62.6 0.2c0-24.6-6.9-36.7-19.7-36.7-12.8 0-19.6 12.1-19.6 36.7 0 24.5 6.7 36.1 19.6 36.1 12.8 0 19.7-11.6 19.7-36.1z"/><path class="a" d="m-200.2 967l1.6-38.2h20.4l5.3 32.1c8.2 3.8 16.1 5.6 26.7 5.6 22 0 35.3-11.2 35.3-28.7 0-15.6-8.5-22.8-27.8-30.7l-10.9-4.5c-29.2-12.5-47.5-28.1-47.5-56.3 0-31.3 25.8-50.1 62.9-50.1 18.3 0 34.5 5.3 46.7 13.8l-1.9 35.8h-20.1l-5.3-30.7c-6.4-3-12.5-4.3-19.9-4.3-17.8 0-31.8 9.8-31.8 27 0 15.4 9.8 23.9 27.3 31.1l11.4 4.8c34.5 14.6 48 29.4 48 55.4 0 31.3-25 52-66.1 52-19.9 0-40.5-5.3-54.3-14.1z"/><path class="a" d="m-70.1 965.7l17.5-3.5c0.2-13 0.2-29.9 0.2-41.3v-113.8l-19.3-2.7v-10.3l47.5-12 3.9 2.4-1 37.4v47.5c13.5-15.7 29.1-23.6 45.3-23.6 23.1 0 36.4 14.6 36.4 47.4v27.6c0 11.9 0 28.6 0.3 41.6l16.1 3.2v10.9h-65.5v-10.9l17-3.4c0.2-13 0.2-29.5 0.2-41.4v-25.2c0-20.7-5-27.6-18.3-27.6-10 0-19.9 4.8-30.7 15.1v37.7c0 11.7 0 28.4 0.2 41.6l15.7 3.2v10.9h-65.5v-10.9z"/><path fill-rule="evenodd" class="a" d="m84.8 913.7c0-42.4 31.1-67.9 64.5-67.9 31.3 0 52 21.2 52 53.3 0 6.1-0.6 10.6-1.6 14.6h-81.2c1.4 30.5 17.5 45.6 39.8 45.6 15.7 0 25.7-6.9 34.5-16.7l7.7 6.9c-10.4 19.6-28.4 30.8-53.1 30.8-37.1 0-62.6-25-62.6-66.6zm34-12.5h36.3c12.8 0 15.9-5.5 15.9-15.1 0-16.2-10.6-27.6-23.6-27.6-13 0-26.5 11.2-28.6 42.7z"/><path fill-rule="evenodd" class="a" d="m454.7 913.7c0-42.4 31-67.9 64.4-67.9 31.3 0 52 21.2 52 53.3 0 6.1-0.5 10.6-1.6 14.6h-81.1c1.3 30.5 17.5 45.6 39.7 45.6 15.7 0 25.8-6.9 34.5-16.7l7.7 6.9c-10.3 19.6-28.3 30.8-53 30.8-37.1 0-62.6-25-62.6-66.6zm33.9-12.5h36.4c12.7 0 15.9-5.5 15.9-15.1 0-16.2-10.6-27.6-23.6-27.6-13 0-26.5 11.2-28.7 42.7z"/><path class="a" d="m580.6 965.7l18.1-3.5c0.2-13.8 0.5-27.5 0.5-41.3v-113.8l-19.4-2.7v-10.3l48.3-12 4 2.4-1.1 37.4v99c0 13.8 0.3 27.5 0.5 41.3l18.1 3.5v10.9h-69z"/><path fill-rule="evenodd" class="a" d="m747.7 962.8q0 0 0 0zm-37 17.4c-31.3 0-53.6-25.2-53.6-66 0-40.8 26.2-68.4 57.5-68.4 13.6 0 23.9 4.8 33.4 15.9v-54.7l-20.6-2.6v-10.4l48.5-11.9 4 2.4-1.1 37.4v140.8l17.2 2.9v10.9l-46.1 2.9-2.2-16.6c-9.8 11.4-21.4 17.4-37 17.4zm12.7-18.8c9.2 0 16.4-3.7 23.3-10.9v-76.1c-8.2-7.1-15.1-10.1-23.1-10.1-17.7 0-32.6 15.4-32.6 49.4 0 32.1 13.5 47.7 32.4 47.7z"/><path class="a" d="m307.7 647.7c-11.7-0.3-20.4 6.8-26.6 22.8l-1.8-21-2.9-1.8-29.7 11.2v6.8l12.5 1.6c0.3 7.1 0.5 11.5 0.5 21.3v9.5c0 7.6 0 19-0.2 27.9l-11.3 2.1v7.3h47.8v-7.3l-14.6-2.8c-0.1-8.7-0.1-19.8-0.1-27.3v-13c2.6-9.4 7.8-17.8 14.3-22.5 1.4 5.1 6.2 8.7 12.1 8.7 6.9 0 12.3-5 12.3-11.7 0-6.8-5.4-11.7-12.3-11.9z"/><path class="a" d="m434.6 962.5c-0.2-13.3-0.2-30-0.2-41.6v-35.1l0.7-41.3-3.9-2.4-29.8 7.4h-51.8c0 0 0-19.5 0-26.3 0-6.8 0.5-21.2 10-26.5 0 0-1.4 2.5-1.2 6.9 0.6 7.7 7 13.2 15.2 13.2 8.2 0 14.9-6 14.9-14.2 0-7.6-6.1-19.4-24.3-19.4-16 0-45.7 8.3-45.7 65.5v0.8h-54.9v-26.3c0-6.8 0.4-21.2 9.9-26.4 0 0-1.4 2.4-1.1 6.9 0.5 7.6 6.9 13.1 15.1 13.1 8.2 0 15-6 15-14.1 0-7.7-6.2-19.4-24.4-19.4-15.9 0-45.6 8.2-45.6 65.4v0.6l-20.2 2.6v13.8h19.6v55.2c0 13.8-0.2 27.6-0.5 41.4l-17.8 3.4v10.9h71.6v-10.9l-20.6-3.9c-0.3-13.6-0.6-27.3-0.6-40.9v-55.2h53.9v55.2c0 13.8-0.2 27.6-0.5 41.4l-17.8 3.4v10.9h71.6v-10.9l-20.6-3.9c-0.3-13.6-0.6-27.3-0.6-40.9v-55.2h51.4c0.5 11 0.7 22.9 0.7 39v16.2c0 11.4 0 28.4-0.3 41.4l-17.2 3.4v10.9h65.8v-10.9l-15.9-3.2z"/><path class="a" d="m568.9 650.2v7.1l13.6 2.2-19.4 54.2-20-54.4 14.1-2v-7.1h-46.6v7.1l9.1 1.5 33.8 82.3-0.4 1.1c-3.2 9.1-7.8 17.3-14.2 23.3-1-5.3-5.6-8.8-11.3-8.8-6.6 0-11.7 4.5-11.7 11.1 0 6.6 5.1 10.9 11.7 10.9h0.2c15.5 0 24.6-12.8 34.9-40l30.5-79.4 9.9-1.9v-7.2h-34.1z"/><path class="a" d="m790.9 650.2h-21.6c0 0 0-13.7 0-18.3 0-4.6 0.3-14.4 6.7-17.9 0 0-0.9 1.6-0.7 4.6 0.3 5.2 4.6 8.9 10.2 8.9 5.6 0 10.1-4 10.1-9.6 0-5.1-4.1-13.1-16.4-13.1-10.8 0-30.8 5.6-30.8 44.2v1.2l-13.6 1.8v9.1h13.2v36.7c0 9.3-0.1 18.7-0.3 28l-12 2.3v7.3h48.3v-7.3l-13.9-2.7c-0.2-9.1-0.4-18.5-0.4-27.6v-36.8h21.2z"/><path class="a" d="m408.6 618.5c0-7.6 5.9-12.8 13.5-12.8 7.7 0 13.4 5.2 13.4 12.8 0 7.7-5.9 12.7-13.4 12.7-7.4 0-13.5-5.4-13.5-12.7z"/><path class="a" d="m32.5 618.5c0-7.6 5.9-12.8 13.5-12.8 7.7 0 13.4 5.2 13.4 12.8 0 7.7-5.9 12.7-13.4 12.7-7.4 0-13.5-5.4-13.5-12.7z"/></svg>