<svg version="1.2" xmlns="http://www.w3.org/2000/svg" viewBox="0 0 266 266" width="266" height="266"><style>.a{fill:#940040}</style><path class="a" d="m156.1 37.3c-0.8 4.7-4.2 6.5-8.5 5.8-4.9-0.8-7.6-3.4-7.2-6.7l2.2-13.5c0.3-2.5-2.5-1.7-2.4-2.6q0-0.3 0.7-0.3c1.5 0.2 3.1 0.6 4.3 0.8 1.2 0.2 2.8 0.3 4.4 0.6 0.4 0.2 0.5 0.3 0.5 0.6-0.1 0.9-2.7-0.8-3 1.8l-2.1 13.5c-0.4 2.6 1.4 4.9 4 5.3 3.2 0.5 5.8-1.3 6.4-5l1.5-9.5c0.4-2.7-0.3-4.3-1.7-5-0.4-0.2-0.9-0.3-0.9-0.7 0-0.2 0.1-0.3 0.5-0.2 0.8 0.1 2 0.4 3.3 0.6 1.2 0.2 2.5 0.3 3.3 0.4 0.4 0.1 0.5 0.2 0.4 0.5 0 0.3-0.6 0.2-1 0.3-1.6 0.2-2.8 1.6-3.1 4.3z"/><path class="a" d="m165.4 41.9c-1 2.3-0.5 3.7 0.3 4.4 0.6 0.7 1.5 0.8 1.3 1.3-0.1 0.2-0.2 0.3-0.6 0.1-1-0.5-2.1-1-3.2-1.6-1.2-0.5-2.3-1-3.3-1.4-0.3-0.1-0.3-0.4-0.2-0.5 0.2-0.4 0.9 0.1 1.7 0.1 1 0 2.4-0.5 3.4-2.9l5.5-12.5c-0.3-1.8-1-2.6-1.9-3-0.4-0.2-0.6-0.3-0.4-0.7 0.1-0.2 0.2-0.2 0.4-0.1 1 0.5 2 1 3.2 1.5l3.2 1.4 4.5 17.4h0.1l3.8-8.5c1-2.3 0.6-3.7-0.2-4.5-0.7-0.6-1.6-0.7-1.3-1.2 0.1-0.2 0.2-0.3 0.5-0.1 1 0.5 2.1 1 3.2 1.6 1.3 0.5 2.4 1 3.4 1.4 0.3 0.1 0.3 0.3 0.2 0.5-0.2 0.4-0.9-0.2-1.8-0.2-1 0-2.3 0.6-3.3 2.9l-6.6 14.8c-0.2 0.6-0.4 0.9-0.6 0.9-0.3-0.1-0.4-0.6-0.5-1l-5.5-21.7h-0.1z"/><path class="a" d="m195.3 41.9c1.5-2-1.4-2.7-0.9-3.3 0.2-0.3 0.4-0.3 0.8 0 1.4 0.8 2.5 1.8 3.6 2.5 1 0.8 2.3 1.6 3.5 2.5 0.5 0.3 0.5 0.4 0.3 0.6-0.6 0.7-2-1.9-3.5 0.2l-9.4 13.3c-1.5 2 1.4 2.6 0.9 3.3-0.2 0.2-0.4 0.2-0.8 0-1.4-0.9-2.5-1.9-3.6-2.6-1-0.7-2.3-1.5-3.5-2.4-0.5-0.3-0.5-0.4-0.3-0.7 0.6-0.6 2 1.9 3.5-0.2z"/><path class="a" d="m215.1 63.4c0.7-0.2 1.3-0.6 1.8-1.1 2.2-2.1-0.2-3.5 0.3-4.1 0.1-0.1 0.4-0.1 0.7 0.1 0.8 0.8 1.4 1.6 2.1 2.4 0.7 0.7 1.4 1.4 2.2 2.2 0.5 0.4 0.6 0.8 0.5 1-0.7 0.7-1.5-2-6-0.2l-16.8 6.4c-0.3 0.1-0.8 0.2-0.9 0.1-0.1-0.1 0-0.4 0.2-0.9l8.1-18.1c1.1-2.6-0.6-3.3-0.2-3.8 0.1-0.1 0.3-0.1 0.6 0.2 1.1 1.1 2 2.2 3 3.3 1 1 2 2 3 3.1 0.3 0.4 0.4 0.7 0.2 0.8-0.5 0.4-1.5-1.7-2.6-0.6q-0.5 0.5-0.6 1l-5.8 12.2z"/><path class="a" d="m224.2 70.4c2.1-1.3-0.3-3 0.5-3.4 0.2-0.1 0.4-0.1 0.6 0.3 0.8 1.4 1.6 2.7 2.3 3.8 2 3.3 3.8 6.6 5.8 9.7l-4.3 4.4c-0.3 0.4-0.5 0.6-0.5 0.6-0.2 0.1-0.3 0-0.4-0.1-0.1-0.3 0.4-0.5 1.5-2.6 1.3-2.5 1.4-4.9-0.6-8.2l-0.9-1.5-7.8 4.7 0.5 0.7c1.1 1.9 3.3 2.4 5.3 1.3 0.6-0.3 0.8-0.3 0.9 0 0.1 0.1 0 0.3-0.2 0.5l-8.2 4.8c-0.3 0.2-0.5 0.2-0.6 0-0.1-0.2-0.1-0.4 0.5-0.7 2.3-1.6 2.7-3.7 1.6-5.6l-0.4-0.7-6.8 4.2c-1.2 0.7-1.6 1.6-0.6 3.3 2.6 4.2 6.9 4.7 10 3.9 0.6-0.1 0.9-0.2 1 0 0.2 0.2 0 0.3-0.1 0.4-0.1 0.1-0.5 0.2-0.9 0.4l-6.6 2.4c-2.1-3.6-4.2-7.2-6.5-10.9q-1-1.7-2.3-3.7c-0.2-0.4-0.2-0.6 0-0.7 0.8-0.5 1.1 2.4 3.2 1.2z"/><path fill-rule="evenodd" class="a" d="m228.8 106c1.3-1.2 1.4-2.8 0.9-4.4l-7.3 2.1c-2.4 0.6-0.4 3-1.3 3.2-0.2 0.1-0.4 0-0.5-0.5-0.5-1.5-0.8-3-1.3-4.2-0.3-1.2-0.9-2.6-1.3-4.2-0.1-0.4 0-0.7 0.2-0.7 0.9-0.2 0.5 2.7 2.9 2l15.7-4.5c2.4-0.7 0.4-3 1.3-3.2 0.2-0.2 0.5 0 0.6 0.4 0.4 1.6 0.7 3 1.2 4.2 0.4 1.6 0.9 2.8 1.4 4.8 1.6 5.1 0 8.6-3 9.4-2.5 0.8-5.1-0.2-7.5-6.2h-0.1c1 3.2 0.6 5.2-1.3 7l-3.6 3.6c-2 1.9-0.4 3.5-1.1 3.9-0.3 0-0.4 0.1-0.5-0.3-0.3-1.1-0.5-2.2-0.9-3.2l-1-3.2zm1.5-4.7l0.3 1.3c1 3.4 3.1 4.4 6.3 3.4 3.4-1 4.3-3 3.5-5.6l-0.6-1.8z"/><path class="a" d="m232.9 120.2c0.3 0 0.4 0.1 0.4 0.4 0 0.3-0.4 0.3-1.1 0.4-4 1-7.9 2.7-7.6 7.3 0.1 3.3 1.8 4.9 4.3 4.8 6.3-0.3 2.7-12.7 10.4-13.1 3.7-0.2 6.7 2.8 6.8 6.7 0.1 3-1 4.5-1 5.4 0 1.1 0.9 0.6 0.9 1.1 0 0.2-0.1 0.4-0.6 0.5l-5.8 0.9c-0.6 0.1-0.9 0.1-1 0.1-0.3 0-0.4-0.1-0.4-0.3 0-0.3 0.7-0.3 1.9-0.8 3.5-1.6 5.5-3.4 5.2-6.8-0.1-2.2-1.2-3.9-3.5-3.8-5.1 0.2-1.7 12.9-10.2 13.2-4.3 0.2-7.6-3.1-7.8-7.9-0.1-3.1 1.2-4.6 1.1-5.9-0.1-1.2-1.1-1-1.1-1.5 0-0.1 0-0.2 0.2-0.2z"/><path class="a" d="m242.6 145.3c2.4 0.4 1.6-2.5 2.5-2.4q0.3 0 0.3 0.7c-0.2 1.5-0.4 3.1-0.6 4.3-0.2 1.2-0.4 2.8-0.6 4.3-0.1 0.5-0.2 0.6-0.4 0.6-0.9-0.1 0.6-2.7-1.8-3l-16.1-2.2c-2.5-0.4-1.7 2.5-2.6 2.4q-0.3 0-0.3-0.7c0.2-1.5 0.4-3.1 0.7-4.3 0.2-1.2 0.3-2.8 0.5-4.3 0.1-0.5 0.2-0.6 0.5-0.6 0.9 0.1-0.7 2.7 1.7 3z"/><path class="a" d="m239.9 166.3c0.3-6.4-4.1-8.3-3.9-9 0-0.1 0.2-0.2 0.3-0.2 0.1 0 0.6 0.2 1 0.6l5.1 2.7c0.5 0.3 0.6 0.4 0.5 0.6 0 0.1-0.2 0.2-0.3 0.3-0.2 0.1-0.4 0.3-0.6 0.7l-4.4 13.3c-0.2 0.5 0 0.7 0 0.9 0.1 0.2 0.1 0.4 0.1 0.5 0 0.1-0.3 0.2-0.7 0.1l-5.8-0.9c-0.5-0.1-1-0.2-1.1-0.2-0.2-0.1-0.2-0.3-0.2-0.4 0.2-0.6 4.9 0.6 8.5-4.7l-16.5-5.6c-1.9-0.7-2.7 0.1-3.1 1.6-0.1 0.3-0.2 0.5-0.6 0.4-0.2-0.1-0.3-0.2-0.2-0.6 0.6-1.6 1.1-3.2 1.7-4.5 0.4-1.5 0.9-2.9 1.4-4.7 0.1-0.3 0.2-0.4 0.5-0.3 0.3 0.1 0.3 0.3 0.2 0.7-0.5 1.4-0.4 2.5 1.5 3.1z"/><path class="a" d="m218.8 188.3l2.3 4.4c0.8 1.4 1.8 2.4 2.6 2.9 1.7 1.1 2.5-0.7 3-0.5 0.1 0.1 0.2 0.3 0 0.7-0.6 0.9-1 1.4-1.7 2.5-0.6 0.8-1 1.7-1.4 2.6-0.2 0.2-0.4 0.2-0.5 0.1-0.5-0.3 1-1.1-1.7-6.3l-3.3-6.5-6.4-4c-2.1-1.3-2.6 1.7-3.3 1.1-0.2-0.1-0.3-0.3 0-0.7q1.4-2 2.4-3.7c0.6-1.1 1.4-2.3 2.2-3.8 0.2-0.4 0.4-0.4 0.7-0.3 0.7 0.4-1.8 2.1 0.4 3.4l5.9 3.7 10.4 0.5c2.8 0.3 3.2-1.7 3.7-1.4q0.3 0.2 0 0.7c-0.8 1.3-1.7 2.5-2.4 3.7-0.8 1.3-1.5 2.6-2.3 3.8-0.2 0.5-0.4 0.6-0.6 0.5-0.6-0.4 1.1-1.7-0.4-2.6-0.4-0.3-1-0.3-1.7-0.4z"/><path class="a" d="m53.8 194.9c-0.4 0.2-0.5 0.1-0.6 0-0.2-0.2 0.2-0.6 0.7-1 2.9-2.9 5.3-6.3 2.8-10.2-1.8-2.7-4.1-3.3-6.1-1.9-5.4 3.5 4.3 12.2-2.3 16.5-3.1 2.1-7.1 1-9.3-2.2-1.7-2.4-1.4-4.4-2-5.2-0.7-0.9-1.1 0-1.4-0.6-0.2-0.2-0.2-0.3 0.2-0.6l4.6-3.8c0.5-0.3 0.7-0.6 0.8-0.7 0.2-0.1 0.4-0.1 0.5 0 0.2 0.2-0.4 0.7-1.1 1.8-2.2 3.1-2.9 5.7-1 8.6 1.2 1.8 3 2.7 5 1.4 4.3-2.9-5.3-11.9 1.8-16.7 3.5-2.3 8.2-1.2 10.8 2.8 1.8 2.6 1.4 4.7 2 5.7 0.7 1 1.5 0.2 1.8 0.6 0.1 0.2 0.1 0.3-0.1 0.4z"/><path class="a" d="m31.3 176.3c-2.3 0.8-0.3 3-1.2 3.3-0.2 0.1-0.4 0-0.5-0.5-0.6-1.5-0.9-3-1.4-4.1-0.4-1.2-0.9-2.6-1.4-4.1-0.1-0.5 0-0.7 0.2-0.8 0.9-0.3 0.6 2.7 2.9 1.9l6.9-2.3-2.7-7.8-6.9 2.3c-2.3 0.8-0.3 3-1.2 3.2-0.2 0.2-0.4 0-0.6-0.4-0.5-1.6-0.8-3-1.3-4.1-0.4-1.2-0.9-2.6-1.4-4.1-0.1-0.5 0-0.7 0.2-0.8 0.8-0.3 0.5 2.7 2.9 1.9l15.4-5.2c2.4-0.8 0.4-3 1.2-3.3 0.3-0.1 0.5 0 0.6 0.5 0.6 1.5 0.9 3 1.3 4.1 0.5 1.2 0.9 2.6 1.5 4.1 0.1 0.5 0 0.7-0.2 0.8-0.9 0.3-0.6-2.7-2.9-1.9l-7.9 2.7 2.6 7.7 7.9-2.6c2.4-0.8 0.4-3 1.3-3.2 0.2-0.2 0.4 0 0.5 0.4 0.6 1.6 0.9 3 1.3 4.1 0.5 1.2 0.9 2.6 1.5 4.1 0.1 0.5 0 0.7-0.2 0.8-0.9 0.3-0.6-2.7-2.9-1.9z"/><path class="a" d="m23.3 145.3c-2.5 0.1-1.1 2.8-2 2.8-0.2 0-0.4-0.1-0.4-0.5-0.1-1.6-0.1-3.2-0.1-4.4-0.2-3.9-0.5-7.5-0.7-11.3l5.9-1.9c0.4-0.1 0.7-0.2 0.8-0.2 0.1 0 0.2 0.1 0.2 0.3 0 0.3-0.6 0.3-2.6 1.6-2.3 1.5-3.5 3.6-3.3 7.4l0.1 1.7 9-0.5v-0.7c-0.1-2.3-1.8-3.7-4.1-3.8-0.7 0-0.8-0.1-0.8-0.5 0-0.2 0.1-0.3 0.5-0.3l9.5-0.4c0.4 0 0.5 0.1 0.5 0.3 0 0.3-0.1 0.4-0.8 0.4-2.8 0.3-4.2 1.9-4.1 4.1v0.8l7.9-0.3c1.4-0.1 2.2-0.7 2.1-2.7-0.2-4.9-3.9-7.3-7-8.2-0.6-0.1-0.9-0.2-0.9-0.4q0-0.4 0.3-0.4c0.3 0 0.6 0 0.9 0.1l7 1c0.2 4.1 0.4 8.4 0.6 12.7 0.1 1.2 0.2 2.8 0.2 4.3 0 0.6-0.1 0.7-0.3 0.7-0.9 0 0.2-2.7-2.4-2.6z"/><path class="a" d="m37.6 119.2c2.4 0.6 3.6-0.2 4.3-1.1 0.5-0.8 0.4-1.7 1-1.5 0.2 0 0.3 0.1 0.2 0.5-0.2 1-0.5 2.2-0.8 3.5-0.2 1.2-0.4 2.4-0.6 3.5-0.1 0.3-0.3 0.5-0.5 0.3-0.5-0.1 0-0.8-0.2-1.7-0.2-1-1-2.3-3.4-2.8l-13.7-2.9c-1.7 0.7-2.3 1.4-2.7 2.4-0.2 0.5-0.2 0.7-0.5 0.7-0.3 0-0.4-0.2-0.3-0.4 0.3-1 0.6-2.1 0.8-3.4l0.8-3.4 16.2-8v-0.1l-9-1.9c-2.4-0.6-3.6 0.2-4.3 1-0.6 0.8-0.5 1.7-1 1.5-0.2 0-0.3-0.1-0.2-0.5 0.2-1 0.5-2.2 0.7-3.5 0.3-1.2 0.5-2.4 0.7-3.5 0.1-0.3 0.2-0.5 0.5-0.3 0.5 0.1 0 0.8 0.2 1.7 0.2 1 1 2.3 3.4 2.8l15.8 3.5c0.6 0.1 1 0.2 1 0.4-0.1 0.2-0.4 0.4-0.9 0.6l-20.1 9.7v0.1z"/><path class="a" d="m49.2 94.8c1.6-3.2 1-5.9-0.2-8-1.2-2.1-2.9-2.9-2.7-3.4 0-0.1 0.3-0.2 0.5-0.1 0.2 0.1 0.5 0.4 1 0.8l5.4 4c-1.1 2.2-2.2 4.6-3.3 6.9-1.1 2.3-2.1 4.7-3.2 7-0.1 0.2-0.4 0.2-0.5 0.2-0.1-0.1-0.3-0.2-0.5-0.6l-12.8-19-0.8 1.6c-1.4 3.1-1.2 5.8 0.3 8.1 1.5 2.1 1.9 2.1 1.7 2.5-0.1 0.2-0.2 0.2-0.3 0.1-0.1 0-0.4-0.2-0.7-0.6l-4.8-4c1-2 2-4.1 3-6.2 1-2.1 1.9-4.2 2.9-6.3 0.2-0.4 0.4-0.5 0.5-0.4 0.1 0.2 0.3 0.5 0.6 0.8l12.8 18.9z"/><path class="a" d="m41.6 70.9c-2-1.6-2.7 1.3-3.4 0.8-0.2-0.1-0.2-0.4 0.1-0.8 1-1.2 2-2.3 2.8-3.3 0.8-1 1.7-2.3 2.7-3.5 0.3-0.4 0.5-0.4 0.6-0.2 0.7 0.5-2 1.9 0 3.4l5.7 4.6 5.1-6.5-5.6-4.5c-2-1.6-2.7 1.3-3.4 0.8-0.2-0.1-0.2-0.4 0.1-0.8 1-1.2 2-2.3 2.8-3.3 0.8-1 1.7-2.3 2.7-3.5 0.3-0.4 0.5-0.4 0.6-0.2 0.7 0.5-2 1.9 0 3.4l12.7 10.3c2 1.5 2.7-1.4 3.3-0.8 0.3 0.1 0.3 0.3-0.1 0.8-1 1.2-2 2.3-2.7 3.3-0.8 1-1.7 2.2-2.7 3.4-0.3 0.5-0.6 0.5-0.7 0.3-0.6-0.6 2-1.9 0-3.5l-6.4-5.2-5.1 6.4 6.4 5.3c2 1.5 2.7-1.4 3.3-0.8 0.3 0.1 0.3 0.3-0.1 0.8-1 1.2-2 2.3-2.7 3.3-0.8 1-1.7 2.2-2.7 3.4-0.3 0.5-0.6 0.5-0.7 0.3-0.6-0.6 2-1.9 0-3.5z"/><path class="a" d="m63.3 47.3c-1.4-2-3 0.6-3.4-0.2-0.1-0.2-0.1-0.4 0.2-0.7 1.3-0.8 2.6-1.7 3.6-2.4 3.2-2.2 6.2-4.4 9.2-6.7l4.8 4c0.3 0.4 0.5 0.5 0.6 0.6 0.1 0.1 0.1 0.2-0.1 0.3-0.2 0.1-0.5-0.3-2.6-1.2-2.7-1.1-5-1-8.2 1.2l-1.3 1 5.2 7.4 0.7-0.5c1.8-1.3 2.1-3.5 0.9-5.4-0.3-0.6-0.3-0.7-0.1-0.9 0.1-0.1 0.3 0 0.5 0.2l5.6 7.8c0.1 0.2 0.1 0.4 0 0.5-0.2 0.3-0.5 0.1-0.8-0.3-1.8-2.2-3.9-2.4-5.7-1.2l-0.6 0.4 4.5 6.5c0.9 1.2 1.8 1.4 3.4 0.3 4-2.9 4.1-7.2 3.1-10.3-0.2-0.6-0.4-0.9-0.1-1 0.2-0.1 0.3 0 0.4 0.1 0.1 0.1 0.3 0.4 0.5 0.8l2.8 6.4c-3.4 2.3-6.7 4.8-10.3 7.3-1 0.8-2.2 1.7-3.5 2.6-0.5 0.3-0.6 0.2-0.8 0-0.6-0.7 2.4-1.3 0.9-3.3z"/><path class="a" d="m92.3 45.4c0.9 2.4 2.3 3 3.3 3 1 0 1.5-0.5 1.7 0 0.1 0.3 0.1 0.4-0.3 0.5-1 0.3-2.2 0.8-3.3 1.2-1.3 0.5-2.4 1-3.4 1.3-0.3 0.2-0.4 0-0.5-0.2-0.2-0.4 0.6-0.4 1.3-1.1 0.8-0.7 1.3-2 0.5-4.4l-4.9-12.9c-1.6-1-2.5-1.1-3.5-0.9-0.4 0.1-0.6 0.2-0.8-0.1-0.1-0.2 0-0.4 0.3-0.5 1-0.3 2.1-0.7 3.2-1.1l3.3-1.2 15.6 9.2h0.1l-3.3-8.6c-0.9-2.4-2.3-3-3.3-3-1 0-1.5 0.5-1.7 0-0.2-0.3-0.2-0.4 0.3-0.5 1-0.3 2.2-0.8 3.3-1.2 1.2-0.5 2.4-1 3.4-1.3 0.3-0.2 0.4 0 0.5 0.2 0.2 0.4-0.7 0.4-1.3 1.1-0.8 0.7-1.4 2-0.5 4.4l5.7 15.1c0.2 0.6 0.3 1 0.1 1.2-0.2 0.1-0.5-0.3-1-0.5l-19.2-11.7h-0.1z"/><path class="a" d="m79.9 219.9c0 1.6-1.4 3-3 3-1.7 0-3-1.4-3-3 0-1.7 1.3-3 3-3 1.6 0 3 1.3 3 3z"/><path class="a" d="m191.9 219.9c0 1.6-1.4 3-3 3-1.7 0-3-1.4-3-3 0-1.7 1.3-3 3-3 1.6 0 3 1.3 3 3z"/><path class="a" d="m99.9 237.3c-0.5 1.3 0.1 2.3 1.8 2.8 1.5 0.7 1.9 0.8 1.7 1.2-0.1 0.3-0.2 0.4-0.5 0.3-2-0.7-4.1-1.5-6-2-2-0.7-4.1-1.4-6.1-2-0.4-0.2-0.5-0.4-0.4-0.6 0.2-0.4 0.5-0.3 2.2 0.1 1.7 0.5 2.7 0.1 3.1-1.2l4.6-13.9c0.3-0.7 0.1-0.9-0.4-1.1l-4-1.3c-0.2-0.2-0.3-0.3-0.3-0.5 0.1-0.4 0.6 0 3.3 0.5 4 0.7 6-0.3 6.5-0.2 0.3 0.2 0.4 0.4 0.3 0.8z"/><path fill-rule="evenodd" class="a" d="m121.8 223c5.1 0.6 7.9 4.9 7.3 10.1-1 9-12.8 11.2-14.1 11.1-0.1 0-0.2-0.1-0.1-0.2 0-0.3 6.7-1.3 9.2-8.9-1.3 0.7-2.7 1-4.3 0.9-5.1-0.6-7-4-6.7-7.1 0.3-3.9 3.5-6.5 8.7-5.9zm-1.1 12.2c1.4 0.1 3.2-0.6 3.6-1.3 0.1-0.2 0.5-1.5 0.6-2.8 0.5-5.7-1-7.4-3.3-7.7-1.8-0.2-3.7 0.7-4.3 5.5-0.4 4.4 1.3 6.1 3.4 6.3z"/><path fill-rule="evenodd" class="a" d="m138.3 234.2c-2-1.2-2.9-2.8-3-4.3-0.3-3.3 2.8-6.3 7.1-6.8 3.6-0.3 6.5 1.7 6.7 4.3 0.1 1.9-0.7 3.7-2.1 4.8 2.4 0.6 4 2.8 4.2 5.5 0.4 3.5-3 6.7-8.1 7.2-4.4 0.3-7.5-2-7.8-5.2-0.1-1.7 0.8-3.9 3-5.5zm4.8 10.2c3.1-0.2 4.6-2.3 4.3-4.7-0.1-1.7-1-3-4.4-3.9-3.2-0.9-3.6-1.1-4-1.1-0.6 0-2 1.7-1.8 4.5 0.5 3.4 2.6 5.5 5.9 5.2zm-0.5-20.7c-2.3 0.2-3.6 1.7-3.4 4 0.2 3.2 5.1 3.9 7.4 4.4 0.6-0.9 1.2-1.8 1-3.9-0.4-3.2-2.3-4.8-5-4.5z"/><path class="a" d="m167.4 226.4c2.4 0.8 4.3 2 5 4.5 1.3 4-1.6 8.3-6 9.8-4.2 1.3-7.6 0.2-8.3-1.9-0.3-1.2 0.1-2.6 1.3-2.9 1.6-0.5 2.5 0.2 3.3 2.2 0.6 2.1 2.1 2.6 3.5 2.1 2.5-0.8 3.7-3.1 2.7-6.2-0.8-2.6-2.7-3.9-4.8-3.9-1.3 0-2.4 0.7-2.5 0.2-0.3-0.6 1.2-0.3 2.4-1.6 0.9-0.9 1-2.4 0.4-4-0.6-2.3-2.5-3-5-2.3-3.2 1-2.7 3.6-3.3 3.7-0.1 0-0.3 0-0.3-0.2-0.2-0.8 0.6-4.9 4.9-6.2 3-0.9 6.4-0.1 7.4 3.1 0.3 1.3 0.1 2.4-0.7 3.6z"/><path fill-rule="evenodd" class="a" d="m133 259c-17 0-33.6-3.3-49-9.9-15-6.3-28.4-15.4-40-27-11.6-11.5-20.7-25-27-40-6.7-15.7-10-32.1-10-49.1 0-17 3.3-33.6 9.9-49 6.3-15 15.4-28.4 27-40 11.5-11.6 25-20.7 40-27 15.5-6.7 32.1-10 49.1-10 17 0 33.6 3.3 49 9.9 15 6.3 28.4 15.4 40 27 11.6 11.5 20.7 25 27 40 6.6 15.5 9.9 32 9.9 49 0 17-3.3 33.5-9.9 49-6.3 15-15.4 28.4-27 40-11.6 11.5-25 20.7-40 27-15.6 6.8-32 10.1-49 10.1zm0-247.6c-67 0-121.6 54.5-121.6 121.6 0 67 54.6 121.6 121.6 121.6 67 0 121.6-54.6 121.6-121.6 0-67.1-54.6-121.6-121.6-121.6z"/><path class="a" d="m111.3 143.7c0.3 0.1 0.5 0.2 0.9 0.2 0.9 0 1.5-0.6 1.7-0.7 0.1 0 0.3-0.2 0.3-0.2 0-0.3-1.3-0.9-1.9-0.9-0.7 0-2 0.7-2 0.9-0.1 0.2 0.7 0.6 1 0.7z"/><path class="a" d="m118.9 159.3c0.3-1.9-0.3-1.3-4.2-1.4-1.8 0-7.9-0.1-9.7 0.1-0.8 0.1-0.9 0.8-0.9 1.2 0 1.4-0.3 1.2 6.3 1.2l2.6-0.2c4.1-0.3 5.1 0.1 5.9-0.9z"/><path fill-rule="evenodd" class="a" d="m186 103.6c0 1.6 0.7 3.1 1.8 4.2l20 20c1.2 1 1.9 2.5 1.9 4.2v22.6c0-1.7-0.7-3.2-1.8-4.3l-20-20c-1.2-1-1.9-2.5-1.9-4.2v4.2c0 1.7 0.7 3.1 1.8 4.3l20 20c1.2 1 1.9 2.5 1.9 4.2v3.3c0 1.2-0.8 2.9-1.6 3.7l-5.9 5.9-14.3-14.4c-1.2-1-1.9-2.5-1.9-4.2v4.2c0 1.7 0.7 3.1 1.8 4.3l12.4 12.4-33.5 33.6-9.1-16.4c-0.8-1.4-2.4-2.4-4.2-2.4h-3.5c1.8 0 3.3 1.1 4.1 2.5l9.9 17.9c-0.5 0.1-0.9 0.2-1.3 0.2h-17.6l-3.3-18.2c-0.3-1.3-1.5-2.4-2.9-2.4h-2.9c1.4 0 2.7 1 2.9 2.4l3.3 18.1h-18.7l3.4-18.1c0.2-1.3 1.4-2.4 2.9-2.4h-2.9c-1.5 0-2.7 1-2.9 2.4l-3.3 18.2h-17.3c-0.3 0-0.9-0.1-1.3-0.2l10-17.6c0.8-1.6 2.3-2.6 4.1-2.6h-3.5c-1.8 0-3.4 1-4.2 2.4l-9.1 16.4-33.5-33.6 12.4-12.4c1.1-1.1 1.8-2.6 1.8-4.2v-4.3c0 1.7-0.8 3.1-1.9 4.3l-14.3 14.5-5.9-5.9c-0.9-0.9-1.6-2.4-1.6-3.6v-3.4c0-1.6 0.8-3.1 1.9-4.2l20-20c1.1-1.1 1.8-2.6 1.8-4.2v-4.2c0 1.6-0.8 3.1-1.9 4.2l-20 20c-1.1 1.1-1.8 2.5-1.8 4.2v-22.6c0-1.6 0.8-3.1 1.9-4.2l20-20c1.1-1.1 1.8-2.5 1.8-4.2v-4.2c0 1.6-0.8 3.1-1.9 4.2l-20 20c-1.1 1.1-1.8 2.6-1.8 4.2v-25c0-1.2 0.8-2.9 1.6-3.6l41.8-41.8c0.9-0.9 2.4-1.6 3.6-1.6h3.1c0.8 0 1.5 0.7 1.5 1.5v19.9c0 1.2 1 2.2 2.2 2.2h2.2v-19.1c0-2.5 2-4.5 4.5-4.5h32.3c2.5 0 4.5 2 4.5 4.5v19h2.2c1.2 0 2.2-1 2.2-2.3v-19.8c0-0.8 0.7-1.5 1.4-1.5h3.2c1.2 0 2.8 0.8 3.6 1.6l41.9 41.9c0.9 0.8 1.6 2.4 1.6 3.6v24.9c0-1.7-0.7-3.1-1.8-4.2l-20-20c-1.2-1-1.9-2.6-1.9-4.2q0 0 0 0zm-34.9 2c2.5-0.1 4.3 0.2 6.6-0.8 0.5-0.7 1.1-2.2 1.4-2.7 1.6-3.1 0.7-3.2 1.6-3.9 2.1-0.7 3.3 5.7 4.2 6.8 2.9 0.8 4.1 0.6 6.3 0.7 2.7-0.2 2.9 0.2 3.2-2.5-0.1-7 0.7-7.6-1.2-8.3-4.3-1.7-9.1-1.8-11.2-1.9-2.1 0-4.3 0.6-8.4 1.3-3.5 1.3-3.6 0.7-4.3 6.8 0 3.2-0.5 4.4 1.8 4.5zm-6.1-2.8c-0.2 1.3-0.7 2.7-0.6 3.5-0.1 1.6 0.7 1.5 2 1.3 1.3-0.5 1.3-3.7 1.3-5.3 0-2.5 0.1-5.3 0.1-6.6-0.1-0.9-0.1-1.5-1.8-1.5-1 0.1-0.9 0.4-1 1.7 0.1 1.7 0.3 5.4 0 6.9zm-1.1 11.5c0.4 2.9 0.4 5.8 0.4 7 0 1.3 0.5 5 1.1 5.5 0.9 0.1 1.6 0.1 2-0.3 0.3-0.7 0.2-1.7 0.2-3.2 0-1.4-0.2-5.6-0.2-6.3 0 0-0.1-4.8-1.6-5.4-1.8 0.3-2.1 0-1.9 2.7zm-4.6 6c0.3 4 0.3 8.7 1.4 11.8 0.3 0.8 1.7 0.6 2.1 0.4 1.1-1-1-12.4-0.5-16.6 0-2.6 1.4-12.4 1.5-17.4 0 0 0.3-5.8-1.4-5.5-1 0.1-1.5 0.2-1.7 0.8-0.4 1.2-0.3 2.9-0.3 4.1 0.3 1.8-0.4 8.9-0.5 11-0.1 2.1-0.9 7.1-0.6 11.4zm-4.1-13.6c0.2 0.5 1.1 0.4 1.9 0.4 2.5-1.9 2.1-11.8 1-12.5-0.9-0.3-1.7 0-2 0.3-0.3 0.9-0.1 4.4-0.5 7.4-0.4 2.3-0.8 3.8-0.4 4.4zm-0.8 21.1c0.2 0.9 1 1.3 2.4 0.9 1.2-0.6 0.2-3.7 0.4-6.8 0.2-3.1 1.1-10 0.6-11.4-0.4-0.6-1.5-1.2-2.4-0.7-0.7 1.1-1.2 1.8-1.2 5.8 0 0-0.1 8.5 0.2 12.2zm-3.6 26.3c-0.5-3.2-1.6-3.2-5-3.4 0 0-15.1 0-20.2 0-11.3 0-11.5 1-12.3 2.9-0.5 2.6-1 5.4-1.1 8.1-0.1 2-0.9 2.3 2.6 3.2 1.3 0.3 1.6-6.9 2.1-8.7 0.3-1.5 0.4-2.3 5-2.3 5.9-0.1 20.1 0.1 22.8 0.1 2.6 0 2.6 2.7 2.6 2.7 0 0-0.3 3.8-0.3 6.3 0 2.6-3 2.6-3 2.6h-8.6v-2.6c0 0 3.7-0.2 4.4-0.2 3.8-0.6 3.1-1.2 3.4-3.2 0.1-3.4 0.7-3.7-3.2-4-2.6-0.1-12 0-15.3 0.1-3.9 0.2-3.9-0.4-4.4 4 0.3 2.3-0.6 3.1 4.7 3.3 1.7 0.1 6.1-0.1 6.1-0.1v2.6c0 0-2 0-4.4 0-3.4 0-5.9-0.2-7-0.4-2.1-0.1-2.5 0.1-2.6 1.5 0.1 1.5-0.1 1.5 3.1 1.9 2 0.1 5.1 0.3 10.9 0.6 0.1 2 0.1 2.5-1.7 3.2-2.4 0.8-7.4 0.4-10.4-0.2-3.8-1.4-5.4-2.4-7.2-3.9-1.2 2.1 0.3 4.6 1.2 6.1 0.8 1.5 13.2 2 15.2 1.8 8.2-0.9 7.1-1.4 7-3.4-0.1-1.5 0.1-3 0.1-3.8 0.6-0.1 8.4-0.1 11.5-0.1 3.5 0 3.6 0.5 3.9-4.7 0.2-3.8 0.3-5.3 0.1-10zm-31.9-14.3c5.1-0.3 5-0.5 4.9-1.2-0.2-2.1 0.1-1.9-3-1.9-5.9 0.3-6 0-6.7 1.4-0.5 2.5-0.7 5.1-0.9 7.9-0.1 3.1-0.1 3 1.5 3.2 1.4 0.1 7.3-0.4 8.9-0.4 0 0 0.1-0.6 0-1.5-0.3-1.4-0.4-1.1-2.5-1-3.2 0.2-4.1 0.5-4.1-0.6 0-1.4-0.4-1.2 4.9-1.5 1.5-0.1 1.4-0.3 1.4-1 0-1.9 0.1-1.4-2.2-1.4-2.7 0.1-4 0.2-4-0.6-0.1-1.5-0.4-1.3 1.8-1.4zm10.1 0.9c-0.6 0.2-1.1 0.4-1.7 0.8-1.7 1-1.5 1.5-1.5 2.2 0.1 0.3 0.8 0.8 1 0.9 0.9 0.5 1.6 0.9 2.4 1.2-0.5 0.4-1.3 0.8-1.5 0.9-1.7 1-2.4 0.9-1.4 2.3 0.6 0.8 0.8 0.8 2.5 0 1.2-0.4 2.5-1.2 3.5-1.8 1.7 0.9 3.5 1.7 3.8 1.8 0.6 0.2 1.9 0.9 2.8-0.3 0.7-1.2 0.8-0.9-1.6-2.2-0.5-0.3-1.1-0.6-1.6-0.8 0.7-0.4 1.3-0.7 2-1 0.3-0.1 0.9-0.6 1-0.8 0.1-1.3-0.3-1.6-1.5-2.2-0.1-0.1-0.9-0.6-1.8-1 0.8-0.4 1.9-1.1 2.9-1.8 0.9-0.6-0.3-2.3-0.5-2.4-0.9 0-3.9 1.6-4.6 2.1-0.2 0.1-0.5 0.2-0.9 0.4-0.9-0.4-1.4-0.7-1.6-0.8-0.7-0.2-2.7-1.4-3.5-1.5-0.5 0.1-1.6 1.6-1.3 1.8 0.4 0.6 1.8 1.4 3.1 2.2zm21.9 5.8c-0.1-3.8-0.2-6.3-0.8-8.2-0.2-1.6-3.1-1.2-6.7-1.1-3.4 0.1-2.8 0.6-2.8 1.9 0 1.5 0.2 1.1 4.6 0.8 2.1-0.1 2.4 0.3 2.1 1.4-0.2 0.7-2.3 0.5-5 0.7-1.9 0.1-1.5 0.9-1.3 2.2 0 0.5-0.1 0.6 2.1 0.5 3.9-0.1 4.1 0.1 4.1 1.1 0 1.3-1.8 1.2-4.1 1.1-2.3-0.1-2.4 0-2.4 1.4 0 0.9 0.1 0.8 0.7 0.9 0.2 0 7.3-0.2 8.5-0.4 0.9-0.2 1.1-0.1 1-2.3zm-2.1-19c-3.7-4.4-7.2-8.2-11.2-11-3.9-2.6-3.9-4.7-3.9-6.6 0.1-2.4-0.6-5.9 1.1-6.7 1.8-0.9 7.8-0.9 9.9 0.1 3.6 1.6 0.6 11.2 2.1 11.9 1.1 0.3 2.6-0.5 3.2-1.2 1.3-1.5 0.2-5.7 0.1-10-0.2-5.1-2.1-4.8-5.4-5.1-1.5-0.1-4.1-0.2-7.6-0.2-4-0.2-3-0.5-3.7-3.2-0.3-1.8-0.2-3.3-2-2.9-2 0.3-2.2 0.4-2.4 2.7-0.1 2.4-0.8 3.8-3.7 3.8-1.2 0-3.5 0.2-5.3 0-3.3 0.4-5.4-0.3-6.3 3.1 0 5.7-0.9 14.1 0.7 14.1 2.5 0 2.7 0.5 2.7-2.1 0-1.7 0-3.5 0.2-7.7 0.4-4.9 8.4-3.8 10.1-3.6 1.8 0.2 1.9 1.7 1.5 7.9-1 3.3-1.8 3.7-4.8 6.5-2.9 2-9.5 9.4-11.1 13-0.9 2.5-0.9 2.5 0.6 3.4 1.5 0.6 2.6-0.8 3.5-2.2 1.9-3.4 9.3-12.9 14.7-12.6 3.5 0.2 7.5 3.7 8.6 5.1 3.2 4.1 7.7 10.3 8.9 9.7 3.4-1 1.5-4-0.5-6.2zm2.6-47.7v-2.2c0-1.3-1-2.3-2.2-2.3h-11c-2.4 0-4.4 2-4.4 4.5zm18.4 72.8c0.4-1.9 0.5-2.8 0.6-4.6 0-1.3 0-3-0.4-4.8-0.2-1.7-0.2-1.6-1.7-1.5-1.9 0.1-1.6 1-1.6 2.9 0.1 1.2 0.6 8.4-1.5 8.5-1 0.1-0.9-8.3-0.9-10.8-0.1-2.5 0.4-3.4-1.8-3.1-2.5 0.5-1.8 1.9-1.9 5-0.2 4.7 1.2 10.4-1.2 10.1-1 0-0.8-1.8-0.8-3.6 0-1.9 0.8-5.9-0.6-5.6-3 0.6-2.4 1.8-2.6 4.2-0.1 1.2-0.1 2.9-0.1 4.7 0 5 0.1 4.6 3.1 3.9 2.1-0.6 1.8 0.9 1.8 2.3-0.2 1.7 0.4 3.8-0.6 4.7-1.4 1.2-2.6 1.1-4.1 1-1.7-0.1-1.5 0.4-1.5 2.1 0.3 1.6 0.2 2.6 2.2 2.6 2.1 0 3.3-0.3 5.5-0.5 2-0.1 5.9-0.5 7-0.8 1.1-0.1 0.6-4.3-0.8-4.3-1.7 0.2-3 0.6-3.4 0-0.3-0.3-0.6-6.2 0-7 0.5-0.8 3.1-1.1 3.8-1.8 0.7-0.6 1.4-1.4 1.5-3.6zm6.7 19.2c-0.6-1.6-1.5-6-1.8-10.2-0.2-3.8 0.6-5.4 2.6-9.4 2.1-4.5 2.1-7 1.9-9.2-0.2-0.9-0.2-2-1.4-4.9-1.2-1.8-1-2.1-3.6-1.9-1.9 0.3-1.5 1-0.7 2.6 0.4 1.2 1.1 2.3 1.2 3.2 0.5 2.2 0.5 2.5 0 5.1-0.8 2.7-1.3 3.8-2 5.4-0.9 1.5-1.7 3.5-2 4.8-0.8 1.9-0.2 4.8 0.1 8.5 0.7 3.2 1.1 4.7 1.5 6 0.9 2.5 1.3 3.7 2.3 3.9 1.3 0.2 1.8 0.2 2.9 0 0.9-0.2-0.7-2.9-1-3.9zm6.3-10.3c0-3.2 1.2-4.9 2.5-8.2 1.1-2.7 2.5-6.1 2.3-9.3-0.2-2.1-1.4-5.9-2.6-6.8-0.7-0.5-0.7-0.7-2.5-0.7-2.9 0-0.5 3.2 0.3 5.3 0.5 1.2 0.7 2 0.5 4.9-0.5 4.4-3.1 6-4.4 11.3-0.4 3.6-0.1 6 0.5 9.9 0.8 3.7 1.8 5.9 2.9 7.1 0.5 0.6 2.2 0.7 3.1 0.5 1.1-0.4-0.7-2.8-1.5-5.6-0.9-3.6-1.1-6.4-1.1-8.4zm11.1-21.4c-1.1-2.5-0.6-3.8-4.5-3.8-1.4 0.2-0.6 1.3 0 2.7 0.8 2.6 1.1 3.1 1.1 8.5-0.7 3.8-1.9 5.8-2.6 7.4-2.4 4.9-1.1 10.8-0.3 14.2 0.4 1.2 1.2 4.7 2.2 5.5 0.7 0.4 2.6 0.9 3.5 0.6 0.7-0.2-0.9-3.6-1.3-5.4-0.4-1.8-1.6-6.8-1.6-9.1 1.1-6 2.3-5.4 3.8-10.8 0.6-5.3 0.6-6.6-0.3-9.8zm0.8-11.4c0-1.2 0-3.6-0.7-7.6-1.1-4.9-1-4.3-8.4-6.5-2.2-0.6-1.9-0.6-2.1-1.1-0.2-0.7-0.2-1.4 0.1-1.6 0.6-0.1 4.4-0.2 6.8-0.2 1.5 0 2.5 0.2 3-0.4 0.3-0.4 0.3-1.7 0.3-2.4 0.1-1.4-2.4-1-5.8-0.9-4.7 0.1-4.4-0.1-4.5-0.9-0.2-1.9 0.3-1.9-1.1-2.3-0.7-0.1-1.8-0.2-2 0.1-0.7 1.1-0.8 2.4-0.8 3.1-0.1 0.5-2.9 0.6-2.9 0.6l-3.9 0.3c-2.9 0.2-2.7 1.1-2.2 2.2 1 2.2 2.1 1.2 3.3 1.2 1.8-0.2 4.6-0.6 5.4-0.4 0.4 0.1 0.8 2.3-0.6 2.7-2.4 1-6.7 2.1-7 3.6-0.9 2.4-1.6 4.4-2 7.1-0.2 2.7-0.7 5-0.2 6.6 0.2 0.3 1.8 0 2.5-0.2 0.4-0.1 0.5-0.8 0.6-1.4 0.1-0.8 0.5-3.6 1.2-7.7 0.8-4.4 4.9-4.1 5.2-3.8 0.4 0.4 0.4 7.8 0.4 9.8 0 2.1-0.4 3.3 1.9 3.9 1.1 0.1 2.2 0.5 2.2-2 0 0-0.1-10.9 0.2-11.5 0.6-0.8 2.7-0.7 5 0.5 2.8 0.8 2.4 7 2.6 9 0 3-0.2 4.1 2 3.3 2-0.8 1.4-1.7 1.5-3.1z"/><path class="a" d="m168.8 101.8l1.8-0.1c0.8-0.3 0.7-1.6 0.3-3.6-0.6-1.2-2.2-1.1-3.9-1.1-0.7 0-1.1 0.1-0.9 1.1 0.6 4 0.8 3.3 2.7 3.7z"/><path class="a" d="m153.2 102l1.4-0.1c2.5-0.2 2.4-1.6 2.7-3.8 0.1-0.9-1.3-0.7-2.7-0.4-1.4 0.2-1.5 0.2-1.7 1.2-0.2 0.9-0.6 2.8 0.3 3.1z"/></svg>